<svg width="24" height="24" viewBox="0 0 24 24" fill="none" xmlns="http://www.w3.org/2000/svg">
<path d="M9.99006 17.2589C11.3251 17.2589 12.4073 16.3032 12.4073 14.8417V4H15.3062C15.1436 5.97723 17.1092 7.88718 19.2768 7.8435V10.5695C17.423 10.5695 15.8467 9.78561 15.298 9.35059V14.8417C15.298 17.2589 13.3964 20 9.99006 20C6.58373 20 4.72363 17.2589 4.72363 14.8417C4.72363 11.43 8.33407 9.45136 10.7253 9.93497V12.7115C10.605 12.669 10.2948 12.6061 10.0306 12.6061C8.68449 12.5564 7.57283 13.6482 7.57283 14.8417C7.57283 16.1767 8.65506 17.2589 9.99006 17.2589Z" fill="#F5F5F5"/>
</svg>
